<?xml version="1.0" encoding="UTF-8"?>
<svg version="1.1" xmlns="http://www.w3.org/2000/svg" width="559" height="519">
<path d="M0 0 C1.38792077 1.17237247 2.76284125 2.36029171 4.125 3.5625 C5.300625 4.52542969 5.300625 4.52542969 6.5 5.5078125 C12.10593621 10.25533972 16.57526687 15.4387693 21.00585938 21.24804688 C26.14161834 27.9718845 31.7505442 34.2081004 37.75390625 40.17578125 C39.53237889 41.96597365 41.13643092 43.70948159 42.6875 45.6875 C44.74306922 48.11201754 46.60799618 49.69805272 49.125 51.5625 C49.125 52.2225 49.125 52.8825 49.125 53.5625 C49.71023438 53.81773437 50.29546875 54.07296875 50.8984375 54.3359375 C53.34637407 55.68444993 54.84366736 57.1513745 56.75 59.1875 C59.62610889 62.14305941 62.55673665 64.78200426 65.8125 67.3125 C71.17383158 71.50078214 76.09967237 76.08309024 81.06640625 80.72265625 C83.56403715 83.0538298 86.1044662 85.32579476 88.6875 87.5625 C94.02644479 92.20162539 94.02644479 92.20162539 96.125 94.5625 C96.125 95.2225 96.125 95.8825 96.125 96.5625 C96.69734375 96.79324219 97.2696875 97.02398437 97.859375 97.26171875 C111.99932214 105.37999875 120.90015965 128.15251921 125.27734375 143.109375 C131.06516718 166.68742069 128.45817921 192.58845885 115.76171875 213.57421875 C111.53152188 220.26086846 107.06443826 226.28815508 101.125 231.5625 C99.9803125 232.7690625 99.9803125 232.7690625 98.8125 234 C81.37718826 250.62436701 60.03141264 257.86593588 36.125 257.5625 C21.08251082 256.55547144 7.16169202 251.62912796 -6.875 246.5 C-16.49918395 242.99656192 -25.67395136 239.84238312 -35.875 238.5625 C-36.90238281 238.40136719 -37.92976562 238.24023438 -38.98828125 238.07421875 C-55.35195711 236.05677926 -70.95349372 241.16997672 -86.16503906 246.60107422 C-90.80044546 248.24559948 -95.46228607 249.80997447 -100.125 251.375 C-100.96981934 251.6647168 -101.81463867 251.95443359 -102.68505859 252.25292969 C-126.5951897 260.32598648 -150.33999124 258.63398269 -173.1640625 248.03515625 C-194.23007004 236.66840548 -209.57058382 215.71302949 -217.0625 193.375 C-224.30193539 168.36069074 -221.14912992 142.88318454 -208.87109375 120.08984375 C-203.66549905 110.76179827 -203.66549905 110.76179827 -200.875 107.5625 C-200.215 107.5625 -199.555 107.5625 -198.875 107.5625 C-198.46894531 106.68078125 -198.46894531 106.68078125 -198.0546875 105.78125 C-192.10768138 94.5961524 -179.65609748 84.81733927 -169.85546875 77.0390625 C-166.22184761 74.01977573 -162.80407999 70.80999237 -159.375 67.5625 C-155.07740943 63.4927179 -150.76077216 59.56375014 -146.125 55.875 C-137.51548107 48.96691646 -130.0427181 41.19834768 -123.43359375 32.36328125 C-122.91925781 31.76902344 -122.40492188 31.17476563 -121.875 30.5625 C-121.215 30.5625 -120.555 30.5625 -119.875 30.5625 C-119.62878906 30.00820313 -119.38257813 29.45390625 -119.12890625 28.8828125 C-114.55622575 20.42121682 -106.74254299 12.25581357 -99.875 5.5625 C-99.215 5.5625 -98.555 5.5625 -97.875 5.5625 C-97.875 4.9025 -97.875 4.2425 -97.875 3.5625 C-96.225 2.9025 -94.575 2.2425 -92.875 1.5625 C-92.875 0.9025 -92.875 0.2425 -92.875 -0.4375 C-62.73553225 -18.13545597 -29.37673343 -22.12258384 0 0 Z " fill="#EE8B39" transform="translate(325.875,240.4375)"/>
<path d="M0 0 C1.13695312 0.76957031 1.13695312 0.76957031 2.296875 1.5546875 C22.39202954 16.03705749 33.96619628 42.12358891 38.75390625 65.71484375 C42.80496558 91.80593215 39.96621554 118.36633467 24.3828125 140.2734375 C17.11285873 149.3521836 5.41416884 155.80814874 -6 158 C-20.97481577 158.92591013 -34.75065842 156.30414579 -46.8046875 146.78515625 C-49.27266999 144.58447751 -51.65348556 142.32916498 -54 140 C-54.9075 139.13375 -55.815 138.2675 -56.75 137.375 C-57.4925 136.59125 -58.235 135.8075 -59 135 C-59.44472656 134.53851563 -59.88945312 134.07703125 -60.34765625 133.6015625 C-76.23331887 116.23323804 -83.31941409 92.1399209 -84 69 C-84.0515625 67.845 -84.103125 66.69 -84.15625 65.5 C-84.70347517 43.97581007 -79.65690847 21.37082116 -65 5 C-59.08966695 -1.20137218 -53.02740684 -5.036219 -45 -8 C-44.33355469 -8.24621094 -43.66710937 -8.49242188 -42.98046875 -8.74609375 C-28.16599201 -13.2684077 -12.28560327 -8.65006761 0 0 Z " fill="#ED8A39" transform="translate(222,37)"/>
<path d="M0 0 C15.33151141 13.0117504 22.34227573 32.2300704 24.21484375 51.91015625 C26.21596293 84.66470697 18.51499086 111.82187383 -3.03515625 137.03515625 C-13.27954479 148.06757468 -26.76835208 157.0548178 -42.1328125 158.1484375 C-56.72789313 158.44003217 -69.18321184 154.34940926 -79.97265625 144.22265625 C-97.60058459 125.49298239 -99.49990004 102.40377227 -99.0703125 77.96484375 C-98.82982577 70.29140511 -98.00080302 63.29265541 -95.78515625 55.91015625 C-95.45644531 54.71519531 -95.12773437 53.52023438 -94.7890625 52.2890625 C-90.78616651 38.97839452 -84.08041064 24.38984749 -74.78515625 13.91015625 C-74.12515625 13.91015625 -73.46515625 13.91015625 -72.78515625 13.91015625 C-72.52605469 13.32878906 -72.26695312 12.74742188 -72 12.1484375 C-66.34030203 1.72076246 -54.04947056 -4.79538817 -43.20703125 -8.37890625 C-28.2830965 -12.75980322 -12.35514871 -9.27069363 0 0 Z " fill="#ED8A39" transform="translate(395.78515625,37.08984375)"/>
<path d="M0 0 C3.3370901 2.43956948 6.29521035 5.04144868 9.0625 8.125 C9.7225 8.846875 10.3825 9.56875 11.0625 10.3125 C22.21076399 25.98974624 22.85355866 44.27608696 19.80859375 62.671875 C14.25109292 88.39350186 -1.15939306 114.47106348 -23.1640625 129.4140625 C-35.93027089 137.28955443 -49.36421643 142.14029567 -64.4375 139.4375 C-76.91157827 136.28114744 -86.98408851 127.02281169 -93.46875 116.1640625 C-102.9601683 96.52490442 -101.13505153 74.80582025 -94.375 54.6875 C-89.66084637 41.47874567 -82.05372956 29.71415748 -72.9375 19.125 C-72.30585938 18.30257812 -71.67421875 17.48015625 -71.0234375 16.6328125 C-54.85600205 -2.80444136 -22.88190879 -14.65046305 0 0 Z " fill="#ED8A39" transform="translate(510.9375,159.875)"/>
<path d="M0 0 C4.4185207 3.29842914 4.4185207 3.29842914 6.26171875 5.0625 C6.26171875 5.7225 6.26171875 6.3825 6.26171875 7.0625 C6.80570312 7.25972656 7.3496875 7.45695312 7.91015625 7.66015625 C23.38580213 16.88898826 32.81585342 41.50165163 37.26171875 58.0625 C37.53447632 59.05479614 37.53447632 59.05479614 37.81274414 60.06713867 C41.98256255 76.6290838 40.85714073 95.71766566 32.76953125 110.85546875 C30.09311919 115.10583298 26.99611591 118.69243427 23.26171875 122.0625 C22.7615625 122.55492187 22.26140625 123.04734375 21.74609375 123.5546875 C14.22388263 130.61994187 5.25200396 133.05383794 -4.890625 133.06640625 C-23.94765612 132.37150898 -37.56692861 122.83289823 -50.73828125 110.0625 C-51.34800781 109.49917969 -51.95773438 108.93585938 -52.5859375 108.35546875 C-53.73828125 107.0625 -53.73828125 107.0625 -53.73828125 105.0625 C-54.39828125 105.0625 -55.05828125 105.0625 -55.73828125 105.0625 C-57.38686114 102.92976467 -58.88749786 100.81180127 -60.36328125 98.5625 C-60.80696045 97.88759521 -61.25063965 97.21269043 -61.70776367 96.51733398 C-76.0966805 74.18241435 -84.56900312 48.80606621 -78.84375 22.171875 C-75.91510036 10.27791417 -69.32763858 -0.53676799 -58.98828125 -7.25 C-39.00445693 -18.32864581 -17.62432136 -12.47027588 0 0 Z " fill="#EE8A39" transform="translate(106.73828125,166.9375)"/>
<path d="M0 0 C0.59039062 0.22300781 1.18078125 0.44601563 1.7890625 0.67578125 C-8.74961294 8.76631306 -19.18661403 13.79533336 -32.5859375 13.86328125 C-33.85179687 13.87746094 -35.11765625 13.89164063 -36.421875 13.90625 C-40.39417525 13.66463586 -43.45127792 12.9047139 -47.2109375 11.67578125 C-46.0234375 10.11328125 -46.0234375 10.11328125 -44.2109375 8.67578125 C-42.53775047 8.9746693 -40.87188135 9.31501206 -39.2109375 9.67578125 C-30.99166714 10.14451948 -23.21899082 9.5553574 -15.2109375 7.67578125 C-14.1384375 7.42828125 -13.0659375 7.18078125 -11.9609375 6.92578125 C-8.65074778 5.42114956 -6.47499157 3.3794223 -3.921875 0.8203125 C-2.2109375 -0.32421875 -2.2109375 -0.32421875 0 0 Z " fill="#C27D47" transform="translate(382.2109375,181.32421875)"/>
<path d="M0 0 C0 0.33 0 0.66 0 1 C-5.75 1.125 -5.75 1.125 -8 0 C-9.34242291 -0.09500389 -10.68937742 -0.1307281 -12.03515625 -0.1328125 C-12.84533203 -0.13410156 -13.65550781 -0.13539063 -14.49023438 -0.13671875 C-15.33908203 -0.13285156 -16.18792969 -0.12898437 -17.0625 -0.125 C-17.88427734 -0.12886719 -18.70605469 -0.13273438 -19.55273438 -0.13671875 C-30.12315923 -0.19788146 -30.12315923 -0.19788146 -40 3 C-42.75 3.125 -42.75 3.125 -45 3 C-32.32262339 -8.09270454 -14.56984279 -4.1416812 0 0 Z " fill="#B97B4B" transform="translate(92,158)"/>
<path d="M0 0 C0 0.66 0 1.32 0 2 C-1.65 2.33 -3.3 2.66 -5 3 C-5 3.66 -5 4.32 -5 5 C-5.59425781 5.25652344 -6.18851562 5.51304688 -6.80078125 5.77734375 C-9.21062253 7.11709565 -10.44871988 8.4373243 -12.1875 10.5625 C-16.19689696 15.31276379 -20.56206234 19.65263249 -25 24 C-25.99 23.34 -26.98 22.68 -28 22 C-27.01 20.515 -27.01 20.515 -26 19 C-25.34 19 -24.68 19 -24 19 C-23.74089844 18.41863281 -23.48179687 17.83726563 -23.21484375 17.23828125 C-19.26527285 9.9614191 -8.52644681 0 0 0 Z " fill="#C77B3F" transform="translate(347,32)"/>
<path d="M0 0 C0.33 0 0.66 0 1 0 C1 14.85 1 29.7 1 45 C-0.95738938 41.08522124 -1.43554797 38.27370825 -2 34 C-2.33 33.67 -2.66 33.34 -3 33 C-3.83372247 21.72871359 -2.12316207 11.03286007 0 0 Z " fill="#C68652" transform="translate(141,73)"/>
<path d="M0 0 C0 0.66 0 1.32 0 2 C8.25 2 16.5 2 25 2 C25 2.66 25 3.32 25 4 C27.64 4 30.28 4 33 4 C33 4.33 33 4.66 33 5 C4.04897846 7.15530744 4.04897846 7.15530744 -5 2 C-2 0 -2 0 0 0 Z " fill="#CD884E" transform="translate(174,492)"/>
<path d="M0 0 C0.66 0.33 1.32 0.66 2 1 C2.60070312 1.29003906 3.20140625 1.58007812 3.8203125 1.87890625 C6.24566868 3.12635647 8.548982 4.51362917 10.875 5.9375 C18.04681725 10.3848426 18.04681725 10.3848426 26 13 C26 13.99 26 14.98 26 16 C26.66 16.33 27.32 16.66 28 17 C16.74379841 15.07270865 5.86882049 9.29620052 -2 1 C-1.34 0.67 -0.68 0.34 0 0 Z " fill="#B97945" transform="translate(141,477)"/>
<path d="M0 0 C-0.75 2.9375 -0.75 2.9375 -2 6 C-4 6.625 -4 6.625 -6 7 C-6.6837045 8.32467746 -7.34964186 9.65863633 -8 11 C-8.598125 11.28875 -9.19625 11.5775 -9.8125 11.875 C-12.3163388 12.98271743 -12.3163388 12.98271743 -14.5 16 C-17.88888889 20.06666667 -17.88888889 20.06666667 -21 21 C-21.99 20.67 -22.98 20.34 -24 20 C-19.67584361 15.98996316 -15.34163628 11.99110048 -11 8 C-10.07703125 7.14921875 -9.1540625 6.2984375 -8.203125 5.421875 C-7.41421875 4.70515625 -6.6253125 3.9884375 -5.8125 3.25 C-5.11769531 2.61578125 -4.42289063 1.9815625 -3.70703125 1.328125 C-2 0 -2 0 0 0 Z " fill="#AA7953" transform="translate(184,294)"/>
<path d="M0 0 C0.33 0 0.66 0 1 0 C1.84843174 6.56699525 2.12561146 12.94550593 2.0625 19.5625 C2.05798828 20.47580078 2.05347656 21.38910156 2.04882812 22.33007812 C2.0371874 24.55345738 2.02083851 26.77669121 2 29 C1.34 29 0.68 29 0 29 C0 31.64 0 34.28 0 37 C-0.33 37 -0.66 37 -1 37 C-1.02935775 32.70834802 -1.04691802 28.41672236 -1.0625 24.125 C-1.07087891 22.92101562 -1.07925781 21.71703125 -1.08789062 20.4765625 C-1.10662365 13.58280854 -0.87608826 6.84079737 0 0 Z " fill="#C38557" transform="translate(260,105)"/>
<path d="M0 0 C0.33 0.99 0.66 1.98 1 3 C1.61875 2.835 2.2375 2.67 2.875 2.5 C8.55904854 1.59055223 14.43665716 1.38110578 20 3 C20 2.01 20 1.02 20 0 C23.3 0 26.6 0 30 0 C25.48916945 4.51083055 16.46973651 5.16939102 10.25 5.3125 C5.71188173 5.15252923 1.37720215 4.15897551 -3 3 C-2.01 2.01 -1.02 1.02 0 0 Z " fill="#C0885C" transform="translate(445,295)"/>
<path d="M0 0 C1.7074998 1.28062485 3.37373596 2.61767557 5 4 C5 4.66 5 5.32 5 6 C5.61875 6.28875 6.2375 6.5775 6.875 6.875 C9 8 9 8 11 10 C11 10.99 11 11.98 11 13 C12.1446875 13.1546875 12.1446875 13.1546875 13.3125 13.3125 C16.18416484 14.04711194 17.23042094 14.6716065 19 17 C19 17.66 19 18.32 19 19 C14.59580444 17.54547785 11.37015598 15.14661585 7.875 12.1875 C7.08802734 11.54844727 7.08802734 11.54844727 6.28515625 10.89648438 C3.12326884 8.25090516 0.74725846 5.75596801 -1 2 C-0.67 1.34 -0.34 0.68 0 0 Z " fill="#B87138" transform="translate(163,168)"/>
<path d="M0 0 C0.33 0.66 0.66 1.32 1 2 C1.66 2.33 2.32 2.66 3 3 C2.236875 3.268125 1.47375 3.53625 0.6875 3.8125 C-2.00407372 4.80853525 -2.00407372 4.80853525 -3.625 6.625 C-4.07875 7.07875 -4.5325 7.5325 -5 8 C-5.99 8 -6.98 8 -8 8 C-8 8.99 -8 9.98 -8 11 C-8.66 11 -9.32 11 -10 11 C-10.20625 11.5775 -10.4125 12.155 -10.625 12.75 C-12.49750888 15.81410544 -14.96958519 17.15539968 -18 19 C-18.66 18.67 -19.32 18.34 -20 18 C-14.36255083 10.83891592 -7.58102522 5.05401681 0 0 Z " fill="#A96F41" transform="translate(456,163)"/>
<path d="M0 0 C-9.48887983 5.19015974 -17.19901055 7.34288855 -28 7 C-28 6.01 -28 5.02 -28 4 C-27.08476563 4.02320313 -26.16953125 4.04640625 -25.2265625 4.0703125 C-23.44378906 4.09738281 -23.44378906 4.09738281 -21.625 4.125 C-19.84996094 4.15980469 -19.84996094 4.15980469 -18.0390625 4.1953125 C-14.88846183 4.32866229 -14.88846183 4.32866229 -13 2 C-11.00239695 1.65259077 -9.00212229 1.32033957 -7 1 C-5.9171875 0.443125 -5.9171875 0.443125 -4.8125 -0.125 C-3 -1 -3 -1 0 0 Z " fill="#AF794E" transform="translate(126,293)"/>
<path d="M0 0 C0.99 0 1.98 0 3 0 C3.0825 0.78375 3.165 1.5675 3.25 2.375 C3.4975 3.24125 3.745 4.1075 4 5 C5.32478838 5.68348955 6.6594737 6.34791759 8 7 C9.73828125 8.62109375 9.73828125 8.62109375 11.3125 10.4375 C11.84488281 11.03433594 12.37726563 11.63117188 12.92578125 12.24609375 C13.45751953 13.11427734 13.45751953 13.11427734 14 14 C13.67 14.99 13.34 15.98 13 17 C7.46289156 12.68105542 3.38378732 8.19741268 0 2 C0 1.34 0 0.68 0 0 Z " fill="#B4723E" transform="translate(417,273)"/>
<path d="M0 0 C2.76836966 1.02707105 3.86246529 1.77979618 5.44921875 4.3203125 C7.94788268 9.97974688 9.64950227 14.80787338 10 21 C7.22120716 17.58849741 5.26245731 13.85776908 3.3125 9.9375 C2.99216797 9.31294922 2.67183594 8.68839844 2.34179688 8.04492188 C0.90158647 5.16757188 0 3.26167037 0 0 Z " fill="#B27747" transform="translate(145,140)"/>
<path d="M0 0 C3.68881485 3.53156519 6.77382244 7.18534092 9.8125 11.3125 C10.21919922 11.86228516 10.62589844 12.41207031 11.04492188 12.97851562 C12.03368611 14.31625547 13.01738585 15.65773623 14 17 C13.34 17.66 12.68 18.32 12 19 C10.86966702 17.75482035 9.74594964 16.50363348 8.625 15.25 C7.99851562 14.55390625 7.37203125 13.8578125 6.7265625 13.140625 C5 11 5 11 3.9609375 8.859375 C3.01435205 6.65965149 3.01435205 6.65965149 0 5 C-0.1875 2.375 -0.1875 2.375 0 0 Z " fill="#B37542" transform="translate(116,176)"/>
<path d="M0 0 C0.99 0.33 1.98 0.66 3 1 C0.08479328 5.07706447 -2.77130683 7.35753051 -7.125 9.8125 C-8.70667969 10.71935547 -8.70667969 10.71935547 -10.3203125 11.64453125 C-13 13 -13 13 -15 13 C-15 12.34 -15 11.68 -15 11 C-14.34 11 -13.68 11 -13 11 C-12.67 10.01 -12.34 9.02 -12 8 C-8.58517997 5.43888497 -6.25191465 4.63555017 -2 5 C-1.855625 4.360625 -1.71125 3.72125 -1.5625 3.0625 C-1 1 -1 1 0 0 Z " fill="#B47543" transform="translate(491,282)"/>
<path d="M0 0 C0.99 0 1.98 0 3 0 C3.38614349 6.8218683 2.00865708 12.49577707 0 19 C-2.67135401 15.16116535 -1.84057805 11.60104357 -1.125 7.25 C-1.02058594 6.55261719 -0.91617188 5.85523438 -0.80859375 5.13671875 C-0.55032364 3.42274441 -0.27667048 1.7111005 0 0 Z " fill="#CD7A37" transform="translate(528,213)"/>
<path d="M0 0 C0.66 1.32 1.32 2.64 2 4 C1.236875 4.598125 0.47375 5.19625 -0.3125 5.8125 C-3.3890772 8.31669074 -5.52810116 10.09910222 -7.375 13.625 C-9 16 -9 16 -11.6875 16.8125 C-12.450625 16.874375 -13.21375 16.93625 -14 17 C-13.175 16.05125 -12.35 15.1025 -11.5 14.125 C-7.54358862 9.51549679 -3.77324563 4.75965248 0 0 Z " fill="#AB7346" transform="translate(204,271)"/>
<path d="M0 0 C0.66 0.33 1.32 0.66 2 1 C2 1.66 2 2.32 2 3 C2.556875 3.20625 3.11375 3.4125 3.6875 3.625 C6.92501302 5.55000774 8.68231141 8.03850902 11 11 C9.25 11.75 9.25 11.75 7 12 C4.75 10.1875 4.75 10.1875 3 8 C3 7.34 3 6.68 3 6 C1.68 5.34 0.36 4.68 -1 4 C-1 1 -1 1 0 0 Z " fill="#BC7E4B" transform="translate(420,334)"/>
<path d="M0 0 C2 2 2 2 2 5 C2.66 5 3.32 5 4 5 C4 7.97 4 10.94 4 14 C4.66 14.33 5.32 14.66 6 15 C5.67 15.99 5.34 16.98 5 18 C5.66 18.33 6.32 18.66 7 19 C6.34 20.32 5.68 21.64 5 23 C2.11003121 15.29789712 0.32419014 8.23442944 0 0 Z " fill="#B97F4F" transform="translate(298,139)"/>
<path d="M0 0 C0 3 0 3 -1 6 C-2.65365406 7.02137457 -4.32376502 8.01612294 -6 9 C-8.39353499 10.932668 -10.70271978 12.95429514 -13 15 C-13.66 14.67 -14.32 14.34 -15 14 C-12.87801168 11.85111324 -10.75260401 9.70581417 -8.625 7.5625 C-8.02171875 6.95083984 -7.4184375 6.33917969 -6.796875 5.70898438 C-6.21679688 5.12568359 -5.63671875 4.54238281 -5.0390625 3.94140625 C-4.23782959 3.13231812 -4.23782959 3.13231812 -3.42041016 2.30688477 C-2 1 -2 1 0 0 Z " fill="#9C7250" transform="translate(150,323)"/>
<path d="M0 0 C2.68466503 0.67116626 4.50525112 1.35824905 6.22265625 3.5859375 C7.95053833 6.5214791 9 8.55757651 9 12 C10.32 12.33 11.64 12.66 13 13 C12 15 12 15 10 16 C8.3305554 13.52266346 6.66433808 11.04326339 5 8.5625 C4.28457031 7.50192383 4.28457031 7.50192383 3.5546875 6.41992188 C3.10351562 5.74638672 2.65234375 5.07285156 2.1875 4.37890625 C1.76855469 3.7557251 1.34960938 3.13254395 0.91796875 2.49047852 C0 1 0 1 0 0 Z " fill="#B37541" transform="translate(41,256)"/>
<path d="M0 0 C2 3 2 3 1.78515625 5.38671875 C0.9607941 8.13049126 -0.1230313 10.33956659 -1.5625 12.8125 C-2.01753906 13.60269531 -2.47257813 14.39289063 -2.94140625 15.20703125 C-3.46541016 16.09455078 -3.46541016 16.09455078 -4 17 C-4.33 16.34 -4.66 15.68 -5 15 C-5.66 14.67 -6.32 14.34 -7 14 C-6.01 13.67 -5.02 13.34 -4 13 C-3.896875 12.154375 -3.79375 11.30875 -3.6875 10.4375 C-2.9171146 6.58557299 -1.63725486 3.55924969 0 0 Z " fill="#BA7842" transform="translate(254,155)"/>
<path d="M0 0 C0.7425 0.0825 1.485 0.165 2.25 0.25 C-0.97914452 3.93579122 -4.63653531 5.93356245 -9 8 C-9.6496875 8.31582031 -10.299375 8.63164062 -10.96875 8.95703125 C-12.55893701 9.72873965 -14.15399229 10.49040275 -15.75 11.25 C-15.75 9.25 -15.75 9.25 -14.625 7.75 C-12.75 6.25 -12.75 6.25 -9.8125 5.3125 C-6.65998877 4.47590764 -6.65998877 4.47590764 -4.6875 2.125 C-2.75 0.25 -2.75 0.25 0 0 Z " fill="#B07A4E" transform="translate(416.75,478.75)"/>
<path d="M0 0 C0.99 0 1.98 0 3 0 C3.84226 2.55986879 4.67398551 5.12239015 5.5 7.6875 C5.85771484 8.7693457 5.85771484 8.7693457 6.22265625 9.87304688 C7.44398994 13.69407657 8.32075577 16.93442056 8 21 C5.78600697 17.20458337 4.99019802 13.24370579 4 9 C3.34 9 2.68 9 2 9 C1.34 6.03 0.68 3.06 0 0 Z " fill="#A87245" transform="translate(137,213)"/>
<path d="M0 0 C0.33 0.99 0.66 1.98 1 3 C-0.18251166 4.5021094 -1.3733768 6.00291203 -2.67578125 7.40234375 C-4.08597354 8.96970464 -4.08597354 8.96970464 -4.94140625 10.98828125 C-6.17938518 13.34089803 -7.57242625 14.5775325 -9.625 16.25 C-10.25664062 16.77078125 -10.88828125 17.2915625 -11.5390625 17.828125 C-12.02117187 18.21484375 -12.50328125 18.6015625 -13 19 C-13.66 18.67 -14.32 18.34 -15 18 C-14.5875 17.53851563 -14.175 17.07703125 -13.75 16.6015625 C-8.97856717 11.21239952 -4.45777351 5.65037266 0 0 Z " fill="#906847" transform="translate(221,251)"/>
<path d="M0 0 C0.33 0 0.66 0 1 0 C1 2.31 1 4.62 1 7 C1.99 7 2.98 7 4 7 C3.96744792 9.01822917 3.93489583 11.03645833 3.90234375 13.0546875 C3.87350758 15.08185404 3.87350758 15.08185404 5 17 C5.13415472 19.6723621 5.04318541 22.32250488 5 25 C0.8473219 17.56128966 -0.4951472 8.41750237 0 0 Z " fill="#9F734E" transform="translate(27,211)"/>
<path d="M0 0 C0.33 0 0.66 0 1 0 C2.15475536 8.09720021 1.99729685 14.34588601 -1 22 C-1.33 22 -1.66 22 -2 22 C-2.30071865 14.44862068 -1.42625566 7.41143564 0 0 Z " fill="#A8774E" transform="translate(28,189)"/>
<path d="M0 0 C3.85955925 3.74666538 7.36619254 7.68521322 10.8125 11.8125 C11.31458984 12.40998047 11.81667969 13.00746094 12.33398438 13.62304688 C13.55806732 15.08028848 14.77932962 16.53989865 16 18 C13 18 13 18 11.3125 16.625 C10 15 10 15 10 13 C9.34 13 8.68 13 8 13 C6.55473264 11.26451831 5.1912778 9.46024037 3.875 7.625 C3.15054687 6.62726563 2.42609375 5.62953125 1.6796875 4.6015625 C0 2 0 2 0 0 Z " fill="#9A7455" transform="translate(342,257)"/>
<path d="M0 0 C6.96050253 0.38669459 11.9394075 2.63438409 18 6 C14.36804504 7.21065165 12.93468371 6.62784815 9.3125 5.5625 C8.31863281 5.27503906 7.32476562 4.98757812 6.30078125 4.69140625 C5.54152344 4.46324219 4.78226562 4.23507813 4 4 C4 3.01 4 2.02 4 1 C2.68 0.67 1.36 0.34 0 0 Z " fill="#BA7946" transform="translate(495,155)"/>
<path d="M0 0 C3.40458262 3.89095157 6.24177968 8.11365765 8 13 C7.67 13.66 7.34 14.32 7 15 C6.34 15 5.68 15 5 15 C5 14.01 5 13.02 5 12 C4.01 11.34 3.02 10.68 2 10 C-0.23513741 6.70611329 -0.17758833 3.90694321 0 0 Z " fill="#A76B3A" transform="translate(405,48)"/>
<path d="M0 0 C2.59269983 0.01747888 5.0525154 0.13768592 7.625 0.375 C8.33140625 0.43171875 9.0378125 0.4884375 9.765625 0.546875 C11.51121361 0.68840921 13.25573673 0.84297387 15 1 C15 1.33 15 1.66 15 2 C7.74 2.99 0.48 3.98 -7 5 C-7 4.01 -7 3.02 -7 2 C-6.21625 2.04125 -5.4325 2.0825 -4.625 2.125 C-1.83883881 2.28728734 -1.83883881 2.28728734 0 0 Z " fill="#AD7E59" transform="translate(262,476)"/>
<path d="M0 0 C0.33 0 0.66 0 1 0 C1.33 3.96 1.66 7.92 2 12 C1.34 12 0.68 12 0 12 C0 13.98 0 15.96 0 18 C-0.33 18 -0.66 18 -1 18 C-1.22181406 15.56304285 -1.42791119 13.126474 -1.625 10.6875 C-1.68945312 9.99720703 -1.75390625 9.30691406 -1.8203125 8.59570312 C-2.11802847 4.7440028 -2.20763723 3.31145584 0 0 Z " fill="#BD7C47" transform="translate(107,403)"/>
<path d="M0 0 C0.99 0 1.98 0 3 0 C2.55397709 6.69034366 -0.07345542 12.02812122 -3 18 C-4.15941038 14.52176885 -3.70820884 12.54104422 -3 9 C-2.34 9 -1.68 9 -1 9 C-1.33 8.01 -1.66 7.02 -2 6 C-1.34 5.67 -0.68 5.34 0 5 C0 3.35 0 1.7 0 0 Z " fill="#A57045" transform="translate(524,232)"/>
<path d="M0 0 C2.29158942 2.89818662 4.07862366 5.83140544 5.75 9.125 C6.19859375 9.99382812 6.6471875 10.86265625 7.109375 11.7578125 C7.40328125 12.49773437 7.6971875 13.23765625 8 14 C7.67 14.66 7.34 15.32 7 16 C5.5 14.6875 5.5 14.6875 4 13 C4 12.01 4 11.02 4 10 C3.34 10 2.68 10 2 10 C-0.4294516 6.3558226 -0.16179575 4.28758728 0 0 Z " fill="#AF7344" transform="translate(131,196)"/>
<path d="M0 0 C1.73546076 2.60319113 2.65175233 4.52267237 3.625 7.4375 C3.88539063 8.19933594 4.14578125 8.96117187 4.4140625 9.74609375 C5 12 5 12 5 16 C4.01 16.33 3.02 16.66 2 17 C1.92652344 16.11248047 1.92652344 16.11248047 1.8515625 15.20703125 C1.42867095 10.73750503 0.71706666 7.17001904 -1 3 C-0.67 2.01 -0.34 1.02 0 0 Z " fill="#B87C4B" transform="translate(446,371)"/>
<path d="M0 0 C2.10546875 0.3984375 2.10546875 0.3984375 4 1 C2.41906946 2.12837409 0.83515284 3.25256518 -0.75 4.375 C-1.63171875 5.00148437 -2.5134375 5.62796875 -3.421875 6.2734375 C-7.63771712 9.09677419 -7.63771712 9.09677419 -10 10 C-10.99 9.67 -11.98 9.34 -13 9 C-12.39671875 8.68546875 -11.7934375 8.3709375 -11.171875 8.046875 C-6.06659617 5.34007412 -6.06659617 5.34007412 -1.6875 1.625 C-1.130625 1.08875 -0.57375 0.5525 0 0 Z " fill="#A0704B" transform="translate(380,181)"/>
<path d="M0 0 C-1.44369043 2.88738087 -3.25669538 3.04452908 -6.25 4.125 C-7.20390625 4.47820312 -8.1578125 4.83140625 -9.140625 5.1953125 C-11.9218023 5.97799354 -14.13074276 6.15707613 -17 6 C-12.3149827 1.90060986 -6.26086269 -0.58695588 0 0 Z " fill="#A47753" transform="translate(64,155)"/>
<path d="M0 0 C0.99 0.66 1.98 1.32 3 2 C0.69 4.64 -1.62 7.28 -4 10 C-4.99 9.34 -5.98 8.68 -7 8 C-6.34 7.01 -5.68 6.02 -5 5 C-4.34 5 -3.68 5 -3 5 C-2.690625 4.360625 -2.38125 3.72125 -2.0625 3.0625 C-1 1 -1 1 0 0 Z " fill="#BA753E" transform="translate(326,46)"/>
<path d="M0 0 C3.7282432 2.64901491 5.80140929 4.53252552 7 9 C7.125 11.8125 7.125 11.8125 7 14 C4.44736912 11.725306 3.15855185 9.56797307 1.8125 6.4375 C1.46832031 5.65246094 1.12414063 4.86742187 0.76953125 4.05859375 C0 2 0 2 0 0 Z " fill="#B57C4E" transform="translate(34,241)"/>
<path d="M0 0 C4.23431576 3.60700972 6.4692099 8.14586161 9 13 C8.01 13.33 7.02 13.66 6 14 C5.67 12.68 5.34 11.36 5 10 C4.34 10 3.68 10 3 10 C2.731875 9.030625 2.46375 8.06125 2.1875 7.0625 C1.795625 6.051875 1.40375 5.04125 1 4 C0.01 3.67 -0.98 3.34 -2 3 C-1 1 -1 1 0 0 Z " fill="#AC7041" transform="translate(237,52)"/>
<path d="M0 0 C0 0.66 0 1.32 0 2 C-6.57849492 2.95494281 -12.41816638 2.8931507 -19 2 C-19 1.67 -19 1.34 -19 1 C-12.62694402 0.25492456 -6.41688675 -0.10349817 0 0 Z " fill="#AE784C" transform="translate(196,495)"/>
<path d="M0 0 C3.09015825 -0.26487071 4.63806967 -0.22498372 7.3125 1.4375 C10.92208481 3.53609582 13.85715572 3.6489115 18 4 C18 4.33 18 4.66 18 5 C11.64012196 5.20190089 6.14778871 4.6277833 0 3 C0 2.01 0 1.02 0 0 Z " fill="#AD7A51" transform="translate(343,492)"/>
<path d="M0 0 C0.66 0.33 1.32 0.66 2 1 C-0.64 3.64 -3.28 6.28 -6 9 C-6.66 8.67 -7.32 8.34 -8 8 C-6.70989008 5.12206249 -5.42638194 3.03816083 -3 1 C-2.01 0.67 -1.02 0.34 0 0 Z " fill="#D38140" transform="translate(192,287)"/>
<path d="M0 0 C0.99 0.33 1.98 0.66 3 1 C0.10933941 10.59453303 0.10933941 10.59453303 -3 14 C-3.33 12.35 -3.66 10.7 -4 9 C-3.01 8.67 -2.02 8.34 -1 8 C-1.33 7.01 -1.66 6.02 -2 5 C-1.34 4.67 -0.68 4.34 0 4 C0 2.68 0 1.36 0 0 Z " fill="#A87347" transform="translate(410,139)"/>
<path d="M0 0 C2.97 0 5.94 0 9 0 C9 0.33 9 0.66 9 1 C11.97 1.33 14.94 1.66 18 2 C18 2.33 18 2.66 18 3 C15.56242587 3.02698422 13.12515085 3.04683099 10.6875 3.0625 C9.99720703 3.07087891 9.30691406 3.07925781 8.59570312 3.08789062 C5.4516975 3.10307906 3.00579981 3.00193327 0 2 C0 1.34 0 0.68 0 0 Z " fill="#BC7439" transform="translate(362,494)"/>
<path d="M0 0 C0 0.66 0 1.32 0 2 C-1.65 2.33 -3.3 2.66 -5 3 C-5 3.66 -5 4.32 -5 5 C-7.25 6.6875 -7.25 6.6875 -10 8 C-12.171875 7.58203125 -12.171875 7.58203125 -14 7 C-12.23462904 5.82508418 -10.46250287 4.66031316 -8.6875 3.5 C-7.70136719 2.8503125 -6.71523438 2.200625 -5.69921875 1.53125 C-3 0 -3 0 0 0 Z " fill="#A37855" transform="translate(347,32)"/>
<path d="M0 0 C3.3 0 6.6 0 10 0 C6.7354972 3.2645028 2.58952701 3.93236055 -1.9375 4.125 C-2.618125 4.08375 -3.29875 4.0425 -4 4 C-2.68 3.67 -1.36 3.34 0 3 C0 2.01 0 1.02 0 0 Z " fill="#AE784C" transform="translate(465,295)"/>
<path d="M0 0 C0.33 0 0.66 0 1 0 C0.67 6.6 0.34 13.2 0 20 C-0.33 20 -0.66 20 -1 20 C-2.51708428 6.3667426 -2.51708428 6.3667426 0 0 Z " fill="#EC822E" transform="translate(414,232)"/>
<path d="M0 0 C0.33 1.32 0.66 2.64 1 4 C-4.75 8 -4.75 8 -7 8 C-5.50902342 4.2047869 -3.24299151 2.38957269 0 0 Z " fill="#AF794D" transform="translate(46,161)"/>
<path d="M0 0 C1.8844171 3.7688342 2.33429462 5.68012475 2.625 9.75 C2.69976562 10.73484375 2.77453125 11.7196875 2.8515625 12.734375 C2.92503906 13.85585937 2.92503906 13.85585937 3 15 C2.67 15 2.34 15 2 15 C2 13.35 2 11.7 2 10 C1.01 10 0.02 10 -1 10 C-0.67 6.7 -0.34 3.4 0 0 Z " fill="#AB7345" transform="translate(416,73)"/>
<path d="M0 0 C4.66989808 0.26685132 8.09833692 2.62840087 12 5 C9 6 9 6 7.25 5.1875 C6.5075 4.795625 5.765 4.40375 5 4 C2.6756398 3.30269194 0.34326294 2.63087848 -2 2 C-1.34 1.34 -0.68 0.68 0 0 Z " fill="#A3734B" transform="translate(209,31)"/>
<path d="M0 0 C0.88336837 2.4667645 1.1312406 3.63859372 0.22265625 6.140625 C-0.16019531 6.83671875 -0.54304688 7.5328125 -0.9375 8.25 C-1.31777344 8.95640625 -1.69804688 9.6628125 -2.08984375 10.390625 C-2.39019531 10.92171875 -2.69054688 11.4528125 -3 12 C-3.66 12 -4.32 12 -5 12 C-4.42365861 7.24518354 -2.44931479 4.02951788 0 0 Z " fill="#A5744E" transform="translate(35,173)"/>
<path d="M0 0 C3.55007718 3.9050849 4.81819916 6.97734643 6 12 C5.01 12 4.02 12 3 12 C3.33 10.68 3.66 9.36 4 8 C3.01 8 2.02 8 1 8 C-0.35439668 5.29120665 -0.06501451 2.99066732 0 0 Z " fill="#A16B3E" transform="translate(522,171)"/>
<path d="M0 0 C4.43458973 1.3937282 6.87378374 3.60582235 10 7 C2.18363463 5.08277831 2.18363463 5.08277831 0 2 C0 1.34 0 0.68 0 0 Z " fill="#AD754A" transform="translate(96,161)"/>
<path d="M0 0 C2.97595467 2.55081829 4.44002566 5.43434437 6 9 C6 9.99 6 10.98 6 12 C5.01 12 4.02 12 3 12 C2.67 11.01 2.34 10.02 2 9 C1.649375 8.195625 1.29875 7.39125 0.9375 6.5625 C0 4 0 4 0 0 Z " fill="#A67046" transform="translate(246,66)"/>
<path d="M0 0 C0.99 0.33 1.98 0.66 3 1 C1.01219635 3.98170547 -0.56237816 5.81831749 -4 7 C-4.99 6.67 -5.98 6.34 -7 6 C-5.90716423 4.96704564 -4.80029421 3.94892165 -3.6875 2.9375 C-3.07261719 2.36902344 -2.45773438 1.80054688 -1.82421875 1.21484375 C-0.92123047 0.61349609 -0.92123047 0.61349609 0 0 Z " fill="#B17649" transform="translate(167,308)"/>
<path d="M0 0 C1.71928713 2.62949796 2.01045637 3.87190947 1.75 7.0625 C1 10 1 10 -1 13 C-2.20577428 8.05632546 -1.6290678 4.79137588 0 0 Z " fill="#BD7C46" transform="translate(414,127)"/>
<path d="M0 0 C0.99 0.66 1.98 1.32 3 2 C1.35 4.64 -0.3 7.28 -2 10 C-2.99 9.34 -3.98 8.68 -5 8 C-4.01 7.34 -3.02 6.68 -2 6 C-1.33820153 4.01954441 -1.33820153 4.01954441 -1 2 C-0.67 1.34 -0.34 0.68 0 0 Z " fill="#B77845" transform="translate(515,253)"/>
<path d="M0 0 C2 3 2 3 2 6 C1.34 6 0.68 6 0 6 C-0.12375 6.804375 -0.2475 7.60875 -0.375 8.4375 C-0.58125 9.283125 -0.7875 10.12875 -1 11 C-1.99 11.495 -1.99 11.495 -3 12 C-2.49202991 7.6822542 -1.80317221 3.96697886 0 0 Z " fill="#A6734B" transform="translate(418,211)"/>
<path d="M0 0 C2.69082872 0.17635452 5.32851446 0.61835921 8 1 C8 1.99 8 2.98 8 4 C8.99 4.33 9.98 4.66 11 5 C2.42857143 4.28571429 2.42857143 4.28571429 -1 1 C-0.67 0.67 -0.34 0.34 0 0 Z " fill="#AC784D" transform="translate(189,189)"/>
<path d="M0 0 C0.66 0 1.32 0 2 0 C1.54965877 1.62723299 1.08944646 3.25173664 0.625 4.875 C0.36976563 5.77992188 0.11453125 6.68484375 -0.1484375 7.6171875 C-1 10 -1 10 -3 12 C-3 9.69 -3 7.38 -3 5 C-2.34 5 -1.68 5 -1 5 C-0.67 3.35 -0.34 1.7 0 0 Z " fill="#B27E54" transform="translate(448,433)"/>
<path d="M0 0 C2.74277578 3.19990508 4.6302836 6.00499382 6 10 C4.125 9.6875 4.125 9.6875 2 9 C-0.29013653 5.5647952 -0.17842973 4.014669 0 0 Z " fill="#A26C41" transform="translate(435,351)"/>
<path d="M0 0 C0.99 0 1.98 0 3 0 C2.46930939 3.82097239 1.50298434 6.06171403 -1 9 C-1 8.34 -1 7.68 -1 7 C-1.66 6.67 -2.32 6.34 -3 6 C-2.01 4.02 -1.02 2.04 0 0 Z " fill="#B36F3A" transform="translate(139,270)"/>
<path d="M0 0 C0.99 0 1.98 0 3 0 C3.07654536 4.51617599 3.10228696 8.59085217 2 13 C1.67 13 1.34 13 1 13 C0.67 8.71 0.34 4.42 0 0 Z " fill="#A97042" transform="translate(528,213)"/>
<path d="M0 0 C3.25543229 0.34879632 4.01873107 1.02133261 6.25 3.5625 C6.8275 4.366875 7.405 5.17125 8 6 C5.125 5.8125 5.125 5.8125 2 5 C0.625 2.4375 0.625 2.4375 0 0 Z " fill="#B37A4C" transform="translate(394,38)"/>
<path d="M0 0 C0.66 0.99 1.32 1.98 2 3 C1.34 3 0.68 3 0 3 C-0.33 5.97 -0.66 8.94 -1 12 C-1.99 12 -2.98 12 -4 12 C-3.33501617 7.61110675 -1.81242323 4.0188515 0 0 Z " fill="#A2734E" transform="translate(115,364)"/>
<path d="M0 0 C5.625 -0.25 5.625 -0.25 9 2 C9 2.99 9 3.98 9 5 C5.54074837 3.7508258 2.85306797 2.32472205 0 0 Z " fill="#AE7242" transform="translate(69,288)"/>
<path d="M0 0 C1.27450447 0.59638333 2.54446877 1.20247416 3.8125 1.8125 C4.52019531 2.14894531 5.22789062 2.48539063 5.95703125 2.83203125 C8.01129035 4.00645471 9.41616278 5.25628016 11 7 C9.02 7 7.04 7 5 7 C4.67 5.68 4.34 4.36 4 3 C2.68 2.67 1.36 2.34 0 2 C0 1.34 0 0.68 0 0 Z " fill="#91623C" transform="translate(316,235)"/>
<path d="M0 0 C0.99 0.495 0.99 0.495 2 1 C2 1.66 2 2.32 2 3 C2.66 3.33 3.32 3.66 4 4 C3.67 4.99 3.34 5.98 3 7 C3.66 7.33 4.32 7.66 5 8 C4.34 9.32 3.68 10.64 3 12 C2.49166409 10.75336669 1.99368855 9.50250613 1.5 8.25 C1.2215625 7.55390625 0.943125 6.8578125 0.65625 6.140625 C0 4 0 4 0 0 Z " fill="#AA7951" transform="translate(300,150)"/>
<path d="M0 0 C0 4.7339375 -2.42180804 8.13271207 -5 12 C-5.66 12 -6.32 12 -7 12 C-5.44298069 7.32894208 -2.91552627 3.91294315 0 0 Z " fill="#946B4A" transform="translate(318,56)"/>
<path d="M0 0 C0.33 1.32 0.66 2.64 1 4 C-1.475 5.485 -1.475 5.485 -4 7 C-4.66 6.34 -5.32 5.68 -6 5 C-4.02 3.35 -2.04 1.7 0 0 Z " fill="#AF7444" transform="translate(165,35)"/>
<path d="M0 0 C3 1.5 3 1.5 6 3 C6 4.32 6 5.64 6 7 C2.942048 5.26440562 0.36620011 3.61527381 -2 1 C-1.34 0.67 -0.68 0.34 0 0 Z " fill="#AB7142" transform="translate(141,477)"/>
<path d="M0 0 C0 3.30941204 -0.40339294 5.11090151 -2 8 C-4.625 8.8125 -4.625 8.8125 -7 9 C-6.02180976 7.68677212 -5.0424189 6.37443848 -4.0625 5.0625 C-3.51722656 4.33160156 -2.97195312 3.60070312 -2.41015625 2.84765625 C-1 1 -1 1 0 0 Z " fill="#956C4C" transform="translate(134,338)"/>
<path d="M0 0 C5.66153846 1.47692308 5.66153846 1.47692308 7.375 4.125 C7.684375 5.053125 7.684375 5.053125 8 6 C5.21788056 5.62403791 3.4120716 5.32681541 1.1875 3.5625 C0 2 0 2 0 0 Z " fill="#C78047" transform="translate(423,340)"/>
<path d="M0 0 C0.59296875 0.22558594 1.1859375 0.45117188 1.796875 0.68359375 C-0.56908433 3.29860143 -3.06361726 5.07358978 -6.203125 6.68359375 C-6.863125 6.35359375 -7.523125 6.02359375 -8.203125 5.68359375 C-7.30284912 4.64827649 -6.38219465 3.6306521 -5.453125 2.62109375 C-4.68742187 1.76837891 -4.68742187 1.76837891 -3.90625 0.8984375 C-2.203125 -0.31640625 -2.203125 -0.31640625 0 0 Z " fill="#B97A48" transform="translate(444.203125,175.31640625)"/>
<path d="M0 0 C1.98 0.66 3.96 1.32 6 2 C6 2.66 6 3.32 6 4 C7.45833358 5.62514468 7.45833358 5.62514468 9 7 C6 7 6 7 4.39453125 5.46875 C3.87246094 4.8190625 3.35039062 4.169375 2.8125 3.5 C2.28269531 2.8503125 1.75289062 2.200625 1.20703125 1.53125 C0.80871094 1.0259375 0.41039062 0.520625 0 0 Z " fill="#9C673D" transform="translate(131,470)"/>
<path d="M0 0 C1.80411967 2.75924185 2.0127245 3.88972103 1.625 7.25 C1.41875 8.1575 1.2125 9.065 1 10 C-1.12508244 6.81237635 -1.5020163 4.73487777 -2 1 C-1.34 0.67 -0.68 0.34 0 0 Z " fill="#B97E4C" transform="translate(111,430)"/>
<path d="M0 0 C0.66 0 1.32 0 2 0 C2 4 2 4 -0.375 6.6875 C-3 9 -3 9 -5 10 C-3.66749209 6.4124787 -2.169283 3.1635377 0 0 Z " fill="#9D7350" transform="translate(121,354)"/>
<path d="M0 0 C2.97 1.98 2.97 1.98 6 4 C5.67 4.99 5.34 5.98 5 7 C3.0625 6.3125 3.0625 6.3125 1 5 C0.25 2.375 0.25 2.375 0 0 Z " fill="#B37442" transform="translate(398,314)"/>
<path d="M0 0 C2.31 0.33 4.62 0.66 7 1 C7.33 2.32 7.66 3.64 8 5 C4.62496331 3.8141763 2.35277269 2.72426311 0 0 Z " fill="#AD6D3B" transform="translate(430,290)"/>
<path d="M0 0 C2.64752004 2.57784846 4.94432065 4.91648098 7 8 C6.01 8.495 6.01 8.495 5 9 C4.34 8.34 3.68 7.68 3 7 C2.01 6.34 1.02 5.68 0 5 C-0.1875 2.375 -0.1875 2.375 0 0 Z " fill="#9A643A" transform="translate(116,176)"/>
<path d="M0 0 C0 0.66 0 1.32 0 2 C-1.2065625 2.433125 -1.2065625 2.433125 -2.4375 2.875 C-5.1326468 3.73262568 -5.1326468 3.73262568 -6 6 C-7.32 5.34 -8.64 4.68 -10 4 C-3.375 0 -3.375 0 0 0 Z " fill="#A17350" transform="translate(468,158)"/>
<path d="M0 0 C0 0.66 0 1.32 0 2 C0.66 2 1.32 2 2 2 C2 2.66 2 3.32 2 4 C-2.455 3.01 -2.455 3.01 -7 2 C-4 0 -4 0 0 0 Z " fill="#B1784A" transform="translate(340,490)"/>
<path d="M0 0 C5.75 3.625 5.75 3.625 8 7 C5.6875 7.3125 5.6875 7.3125 3 7 C1.18116991 4.6167054 0 3.04181663 0 0 Z " fill="#986F4E" transform="translate(390,307)"/>
<path d="M0 0 C0.66 1.32 1.32 2.64 2 4 C0.35 5.32 -1.3 6.64 -3 8 C-3.66 7.67 -4.32 7.34 -5 7 C-3.35 4.69 -1.7 2.38 0 0 Z " fill="#A76E41" transform="translate(435,182)"/>
<path d="M0 0 C1.1875 1.625 1.1875 1.625 2 4 C0.625 7.25 0.625 7.25 -1 10 C-1.66 10 -2.32 10 -3 10 C-2.39009109 6.44219804 -1.4216319 3.3171411 0 0 Z " fill="#9F6D44" transform="translate(147,56)"/>
<path d="M0 0 C2.31 0.33 4.62 0.66 7 1 C3.73454239 2.88391785 0.71888239 3.49287967 -3 4 C-2.67 3.34 -2.34 2.68 -2 2 C-1.34 2 -0.68 2 0 2 C0 1.34 0 0.68 0 0 Z " fill="#B28056" transform="translate(248,480)"/>
<path d="M0 0 C2 3 2 3 2 5 C2.66 5 3.32 5 4 5 C3.34 6.65 2.68 8.3 2 10 C-0.09350689 6.5980513 -0.17942163 3.94727588 0 0 Z " fill="#AA7953" transform="translate(107,421)"/>
<path d="M0 0 C0.99 0 1.98 0 3 0 C3.66 2.31 4.32 4.62 5 7 C4.01 7 3.02 7 2 7 C2 6.01 2 5.02 2 4 C0.56249809 2.31201173 0.56249809 2.31201173 -1 1 C-0.67 0.67 -0.34 0.34 0 0 Z " fill="#B17646" transform="translate(408,56)"/>
<path d="M0 0 C-0.66 0.66 -1.32 1.32 -2 2 C-4.1640625 1.9765625 -4.1640625 1.9765625 -6.625 1.625 C-7.44226563 1.51414062 -8.25953125 1.40328125 -9.1015625 1.2890625 C-9.72804688 1.19367187 -10.35453125 1.09828125 -11 1 C-11 0.67 -11 0.34 -11 0 C-7.01803543 -1.05404945 -4.01804691 -0.84098656 0 0 Z " fill="#C57C41" transform="translate(383,30)"/>
<path d="M0 0 C3.63 0.33 7.26 0.66 11 1 C11 1.33 11 1.66 11 2 C9.54263913 2.19491452 8.08405407 2.38069358 6.625 2.5625 C5.81289062 2.66691406 5.00078125 2.77132813 4.1640625 2.87890625 C2 3 2 3 0 2 C0 1.34 0 0.68 0 0 Z " fill="#B67844" transform="translate(205,493)"/>
<path d="M0 0 C2.97 1.98 2.97 1.98 6 4 C5.67 4.99 5.34 5.98 5 7 C3.0625 6.3125 3.0625 6.3125 1 5 C0.25 2.375 0.25 2.375 0 0 Z " fill="#A86A38" transform="translate(406,321)"/>
<path d="M0 0 C2.31 1.98 4.62 3.96 7 6 C5 7 5 7 2.9375 6.375 C1 5 1 5 0.25 2.375 C0.1675 1.59125 0.085 0.8075 0 0 Z " fill="#A16B3F" transform="translate(380,298)"/>
<path d="M0 0 C-0.99 0 -1.98 0 -3 0 C-3 0.66 -3 1.32 -3 2 C-4.98 2.33 -6.96 2.66 -9 3 C-9.33 2.34 -9.66 1.68 -10 1 C-3.71428571 -1.42857143 -3.71428571 -1.42857143 0 0 Z " fill="#9A7051" transform="translate(264,228)"/>
<path d="M0 0 C2.99693138 0.99897713 4.02709413 1.65130253 6 4 C6 4.66 6 5.32 6 6 C2.34683329 4.75023244 1.21934164 4.32901247 -1 1 C-0.67 0.67 -0.34 0.34 0 0 Z " fill="#B67B4C" transform="translate(176,181)"/>
<path d="M0 0 C0.99 0.33 1.98 0.66 3 1 C3 1.66 3 2.32 3 3 C1 4.625 1 4.625 -1 6 C-1.66 5.67 -2.32 5.34 -3 5 C-2.01 3.35 -1.02 1.7 0 0 Z " fill="#B27749" transform="translate(238,180)"/>
<path d="M0 0 C3.73639216 1.24546405 4.18756513 2.63404953 6 6 C4.68 6 3.36 6 2 6 C1.34 4.02 0.68 2.04 0 0 Z " fill="#A66532" transform="translate(516,165)"/>
<path d="M0 0 C2.09749995 2.35968744 2.96905704 3.54616994 3.1875 6.75 C3.125625 7.4925 3.06375 8.235 3 9 C0.9375 6.75 0.9375 6.75 -1 4 C-0.75 1.6875 -0.75 1.6875 0 0 Z " fill="#AC6E3C" transform="translate(307,164)"/>
<path d="M0 0 C3.77545388 1.09068668 6.47043472 1.9083091 9 5 C6.36 4.67 3.72 4.34 1 4 C0.67 2.68 0.34 1.36 0 0 Z " fill="#946D4D" transform="translate(504,157)"/>
<path d="M0 0 C1.46726798 3.81489674 0.43336419 6.29011622 -1 10 C-1.33 10 -1.66 10 -2 10 C-2.33 7.69 -2.66 5.38 -3 3 C-2.34 3 -1.68 3 -1 3 C-0.67 2.01 -0.34 1.02 0 0 Z " fill="#A07450" transform="translate(258,148)"/>
<path d="M0 0 C-2.85306797 2.32472205 -5.54074837 3.7508258 -9 5 C-9 3 -9 3 -7.875 1.375 C-5.24112056 -0.55651159 -3.18083044 -0.21205536 0 0 Z " fill="#A2724A" transform="translate(410,485)"/>
<path d="M0 0 C0.66 0.33 1.32 0.66 2 1 C1.01 2.32 0.02 3.64 -1 5 C-2.32 4.67 -3.64 4.34 -5 4 C-3.36587557 2.29159719 -2.13093906 1.06546953 0 0 Z " fill="#C98046" transform="translate(129,346)"/>
<path d="M0 0 C1.5625 1.25 1.5625 1.25 3 3 C2.6875 5.1875 2.6875 5.1875 2 7 C1.01 7 0.02 7 -1 7 C-0.67 4.69 -0.34 2.38 0 0 Z " fill="#B47B4B" transform="translate(301,89)"/>
<path d="M0 0 C0.66 0.99 1.32 1.98 2 3 C1.34 3 0.68 3 0 3 C0.33 3.99 0.66 4.98 1 6 C0.67 6.66 0.34 7.32 0 8 C-0.66 8 -1.32 8 -2 8 C-2.33 8.66 -2.66 9.32 -3 10 C-2.39009109 6.44219804 -1.4216319 3.3171411 0 0 Z " fill="#916645" transform="translate(306,76)"/>
</svg>
